HIERARCHY
ROOT Hips
{
  OFFSET 5.72205e-005 65.662 3.42586
  CHANNELS 6 Xposition Yposition Zposition Zrotation Xrotation Yrotation
  JOINT Chest
  {
    OFFSET 0 8.7983 -4.7612
    CHANNELS 6 Xposition Yposition Zposition Zrotation Xrotation Yrotation
    JOINT Chest2
    {
      OFFSET 0 8.0291 0.4195
      CHANNELS 6 Xposition Yposition Zposition Zrotation Xrotation Yrotation
      JOINT Chest3
      {
        OFFSET 0 9.9351 -2.2114
        CHANNELS 6 Xposition Yposition Zposition Zrotation Xrotation Yrotation
        JOINT Neck
        {
          OFFSET 0 22.3885 -0.4656
          CHANNELS 6 Xposition Yposition Zposition Zrotation Xrotation Yrotation
          JOINT Head
          {
            OFFSET -0.0001 12.643 3.4389
            CHANNELS 6 Xposition Yposition Zposition Zrotation Xrotation Yrotation
            End Site
            {
              OFFSET 0.0001 17.6655 0.5274
            }
          }
        }
        JOINT LeftCollar
        {
          OFFSET 2.2603 21.606 7.4023
          CHANNELS 6 Xposition Yposition Zposition Zrotation Xrotation Yrotation
          JOINT LeftShoulder
          {
            OFFSET 13.5163 -1.1332 -5.0146
            CHANNELS 6 Xposition Yposition Zposition Zrotation Xrotation Yrotation
            JOINT LeftElbow
            {
              OFFSET -0.0995 -28.05 -0.2431
              CHANNELS 6 Xposition Yposition Zposition Zrotation Xrotation Yrotation
              JOINT LeftWrist
              {
                OFFSET 0.0679 -23.3996 -0.1402
                CHANNELS 6 Xposition Yposition Zposition Zrotation Xrotation Yrotation
                JOINT LeftFinger1
                {
                  OFFSET 0.7932 -9.069 2.5189
                  CHANNELS 6 Xposition Yposition Zposition Zrotation Xrotation Yrotation
                  JOINT LeftFinger11
                  {
                    OFFSET -0.8272 -3.3923 0.5977
                    CHANNELS 6 Xposition Yposition Zposition Zrotation Xrotation Yrotation
                    JOINT LeftFinger12
                    {
                      OFFSET -0.5649 -2.3158 0.4082
                      CHANNELS 6 Xposition Yposition Zposition Zrotation Xrotation Yrotation
                      End Site
                      {
                        OFFSET -0.4919 -1.6479 0.2673
                      }
                    }
                  }
                }
                JOINT LeftFinger2
                {
                  OFFSET 0.9159 -9.2044 0.2193
                  CHANNELS 6 Xposition Yposition Zposition Zrotation Xrotation Yrotation
                  JOINT LeftFinger21
                  {
                    OFFSET 0.0117 -4.1944 -0.0248
                    CHANNELS 6 Xposition Yposition Zposition Zrotation Xrotation Yrotation
                    JOINT LeftFinger22
                    {
                      OFFSET 0.0071 -2.3249 -0.0142
                      CHANNELS 6 Xposition Yposition Zposition Zrotation Xrotation Yrotation
                      End Site
                      {
                        OFFSET -0.1475 -2.0882 0.0028
                      }
                    }
                  }
                }
                JOINT LeftFinger3
                {
                  OFFSET 0.6113 -8.7231 -2.0637
                  CHANNELS 6 Xposition Yposition Zposition Zrotation Xrotation Yrotation
                  JOINT LeftFinger31
                  {
                    OFFSET -0.1927 -3.8059 -0.2383
                    CHANNELS 6 Xposition Yposition Zposition Zrotation Xrotation Yrotation
                    JOINT LeftFinger32
                    {
                      OFFSET -0.1091 -2.1688 -0.1362
                      CHANNELS 6 Xposition Yposition Zposition Zrotation Xrotation Yrotation
                      End Site
                      {
                        OFFSET -0.2358 -1.9176 -0.0906
                      }
                    }
                  }
                }
                JOINT LeftFinger4
                {
                  OFFSET -0.6151 -8.0947 -3.5641
                  CHANNELS 6 Xposition Yposition Zposition Zrotation Xrotation Yrotation
                  JOINT LeftFinger41
                  {
                    OFFSET -0.4882 -2.341 -0.6462
                    CHANNELS 6 Xposition Yposition Zposition Zrotation Xrotation Yrotation
                    JOINT LeftFinger42
                    {
                      OFFSET -0.3575 -1.7167 -0.4742
                      CHANNELS 6 Xposition Yposition Zposition Zrotation Xrotation Yrotation
                      End Site
                      {
                        OFFSET -0.4187 -1.5237 -0.3496
                      }
                    }
                  }
                }
                JOINT LeftFinger0
                {
                  OFFSET -1.42 -1.8761 1.4223
                  CHANNELS 6 Xposition Yposition Zposition Zrotation Xrotation Yrotation
                  JOINT LeftFinger01
                  {
                    OFFSET -1.1471 -3.4929 2.6334
                    CHANNELS 6 Xposition Yposition Zposition Zrotation Xrotation Yrotation
                    JOINT LeftFinger02
                    {
                      OFFSET -0.823 -2.3 1.6571
                      CHANNELS 6 Xposition Yposition Zposition Zrotation Xrotation Yrotation
                      End Site
                      {
                        OFFSET -0.5822 -1.6914 1.1582
                      }
                    }
                  }
                }
              }
            }
          }
        }
        JOINT RightCollar
        {
          OFFSET -2.2603 21.606 7.4023
          CHANNELS 6 Xposition Yposition Zposition Zrotation Xrotation Yrotation
          JOINT RightShoulder
          {
            OFFSET -13.5187 -1.1334 -5.0155
            CHANNELS 6 Xposition Yposition Zposition Zrotation Xrotation Yrotation
            JOINT RightElbow
            {
              OFFSET 0.0994 -28.0499 -0.2431
              CHANNELS 6 Xposition Yposition Zposition Zrotation Xrotation Yrotation
              JOINT RightWrist
              {
                OFFSET -0.0679 -23.3996 -0.1402
                CHANNELS 6 Xposition Yposition Zposition Zrotation Xrotation Yrotation
                JOINT RightFinger1
                {
                  OFFSET -0.7932 -9.0691 2.5189
                  CHANNELS 6 Xposition Yposition Zposition Zrotation Xrotation Yrotation
                  JOINT RightFinger11
                  {
                    OFFSET 0.8272 -3.3923 0.5977
                    CHANNELS 6 Xposition Yposition Zposition Zrotation Xrotation Yrotation
                    JOINT RightFinger12
                    {
                      OFFSET 0.565 -2.3158 0.4082
                      CHANNELS 6 Xposition Yposition Zposition Zrotation Xrotation Yrotation
                      End Site
                      {
                        OFFSET 0.4919 -1.6479 0.2673
                      }
                    }
                  }
                }
                JOINT RightFinger2
                {
                  OFFSET -0.916 -9.2044 0.2193
                  CHANNELS 6 Xposition Yposition Zposition Zrotation Xrotation Yrotation
                  JOINT RightFinger21
                  {
                    OFFSET -0.0117 -4.1944 -0.0248
                    CHANNELS 6 Xposition Yposition Zposition Zrotation Xrotation Yrotation
                    JOINT RightFinger22
                    {
                      OFFSET -0.0071 -2.3249 -0.0142
                      CHANNELS 6 Xposition Yposition Zposition Zrotation Xrotation Yrotation
                      End Site
                      {
                        OFFSET 0.1475 -2.0882 0.0028
                      }
                    }
                  }
                }
                JOINT RightFinger3
                {
                  OFFSET -0.6113 -8.7231 -2.0637
                  CHANNELS 6 Xposition Yposition Zposition Zrotation Xrotation Yrotation
                  JOINT RightFinger31
                  {
                    OFFSET 0.1927 -3.8059 -0.2383
                    CHANNELS 6 Xposition Yposition Zposition Zrotation Xrotation Yrotation
                    JOINT RightFinger32
                    {
                      OFFSET 0.1091 -2.1688 -0.1362
                      CHANNELS 6 Xposition Yposition Zposition Zrotation Xrotation Yrotation
                      End Site
                      {
                        OFFSET 0.2358 -1.9176 -0.0906
                      }
                    }
                  }
                }
                JOINT RightFinger4
                {
                  OFFSET 0.6151 -8.0947 -3.564
                  CHANNELS 6 Xposition Yposition Zposition Zrotation Xrotation Yrotation
                  JOINT RightFinger41
                  {
                    OFFSET 0.4882 -2.341 -0.6462
                    CHANNELS 6 Xposition Yposition Zposition Zrotation Xrotation Yrotation
                    JOINT RightFinger42
                    {
                      OFFSET 0.3574 -1.7166 -0.4742
                      CHANNELS 6 Xposition Yposition Zposition Zrotation Xrotation Yrotation
                      End Site
                      {
                        OFFSET 0.4187 -1.5237 -0.3496
                      }
                    }
                  }
                }
                JOINT RightFinger0
                {
                  OFFSET 1.4199 -1.8761 1.4221
                  CHANNELS 6 Xposition Yposition Zposition Zrotation Xrotation Yrotation
                  JOINT RightFinger01
                  {
                    OFFSET 1.1472 -3.4929 2.6336
                    CHANNELS 6 Xposition Yposition Zposition Zrotation Xrotation Yrotation
                    JOINT RightFinger02
                    {
                      OFFSET 0.8229 -2.3 1.6571
                      CHANNELS 6 Xposition Yposition Zposition Zrotation Xrotation Yrotation
                      End Site
                      {
                        OFFSET 0.5822 -1.6914 1.1582
                      }
                    }
                  }
                }
              }
            }
          }
        }
      }
    }
  }
  JOINT RightHip
  {
    OFFSET -9.412 3.9771 -0.7758
    CHANNELS 6 Xposition Yposition Zposition Zrotation Xrotation Yrotation
    JOINT RightKnee
    {
      OFFSET -0.7531 -40.938 0
      CHANNELS 6 Xposition Yposition Zposition Zrotation Xrotation Yrotation
      JOINT RightAnkle
      {
        OFFSET 0 -40.1986 0
        CHANNELS 6 Xposition Yposition Zposition Zrotation Xrotation Yrotation
        JOINT RightToe
        {
          OFFSET 0 -4.4182 9.239
          CHANNELS 6 Xposition Yposition Zposition Zrotation Xrotation Yrotation
          End Site
          {
            OFFSET 0 0 6.1981
          }
        }
      }
    }
  }
  JOINT LeftHip
  {
    OFFSET 9.4119 3.9773 -0.7758
    CHANNELS 6 Xposition Yposition Zposition Zrotation Xrotation Yrotation
    JOINT LeftKnee
    {
      OFFSET 0.7532 -40.9383 0
      CHANNELS 6 Xposition Yposition Zposition Zrotation Xrotation Yrotation
      JOINT LeftAnkle
      {
        OFFSET 0 -40.1986 0
        CHANNELS 6 Xposition Yposition Zposition Zrotation Xrotation Yrotation
        JOINT LeftToe
        {
          OFFSET 0 -4.4182 9.239
          CHANNELS 6 Xposition Yposition Zposition Zrotation Xrotation Yrotation
          End Site
          {
            OFFSET 0 0 6.1981
          }
        }
      }
    }
  }
}
MOTION
Frames:	4
Frame Time:	0.0333333
5.72205e-005 65.662 3.42586 0 0 -0 0 8.7983 -4.7612 0 0 -0 0 8.0291 0.4195 0 0 -0 0 9.9351 -2.2114 0 0 -0 0 22.3885 -0.4656 0 0 -0 -0.0001 12.643 3.4389 0 0 -0 2.2603 21.606 7.4023 0 0 -12.5014 13.5163 -1.1332 -5.0146 88.1196 14.2451 10.6914 -0.0995 -28.05 -0.2431 -0.00160068 -0.00239207 0.000740045 0.0679 -23.3996 -0.1402 -8.4365e-005 7.00714e-005 -9.52055e-007 0.7932 -9.069 2.5189 9.93923e-017 -1.98785e-016 -1.59028e-015 -0.8272 -3.3923 0.5977 9.93923e-017 -5.96354e-016 -1.59028e-015 -0.5649 -2.3158 0.4082 -9.93923e-017 -5.96354e-016 -1.59028e-015 0.9159 -9.2044 0.2193 9.93923e-017 -1.98785e-016 -1.59028e-015 0.0117 -4.1944 -0.0248 -0.0128176 0.00232552 8.52707e-005 0.0071 -2.3249 -0.0142 9.93923e-017 5.96354e-016 -0 0.6113 -8.7231 -2.0637 9.93923e-017 -1.98785e-016 -1.59028e-015 -0.1927 -3.8059 -0.2383 -0.0160551 0.00299681 0.000857156 -0.1091 -2.1688 -0.1362 -2.48481e-016 0 3.18055e-015 -0.6151 -8.0947 -3.5641 9.93923e-017 -1.98785e-016 -1.59028e-015 -0.4882 -2.341 -0.6462 -0.0125865 0.0031206 0.00282719 -0.3575 -1.7167 -0.4742 0 1.98785e-016 -0 -1.42 -1.8761 1.4223 9.93923e-017 -1.98785e-016 -1.59028e-015 -1.1471 -3.4929 2.6334 9.93923e-017 -5.96354e-016 -1.59028e-015 -0.823 -2.3 1.6571 -9.93923e-017 -5.96354e-016 -1.59028e-015 -2.2603 21.606 7.4023 -0.865644 0.16582 7.03859 -13.5187 -1.1334 -5.0155 -88.0329 10.2057 -10.5567 0.0994 -28.0499 -0.2431 0.0015593 -0.00248883 -0.000788628 -0.0679 -23.3996 -0.1402 7.87605e-005 4.10553e-005 1.24965e-005 -0.7932 -9.0691 2.5189 -3.97569e-016 -7.95139e-016 3.18055e-015 0.8272 -3.3923 0.5977 -1.98785e-016 -3.97569e-016 3.18055e-015 0.565 -2.3158 0.4082 -1.98785e-016 0 3.18055e-015 -0.916 -9.2044 0.2193 -3.97569e-016 -7.95139e-016 3.18055e-015 -0.0117 -4.1944 -0.0248 0.0129473 0.00231697 -8.70038e-005 -0.0071 -2.3249 -0.0142 9.93923e-017 -7.95139e-016 1.59028e-015 -0.6113 -8.7231 -2.0637 -3.97569e-016 -7.95139e-016 3.18055e-015 0.1927 -3.8059 -0.2383 0.0163314 0.00303369 -0.000872333 0.1091 -2.1688 -0.1362 3.97569e-016 7.95139e-016 -3.18055e-015 0.6151 -8.0947 -3.564 -3.97569e-016 -7.95139e-016 3.18055e-015 0.4882 -2.341 -0.6462 0.0145763 0.00367772 -0.00326275 0.3574 -1.7166 -0.4742 9.93923e-017 -3.97569e-016 -0 1.4199 -1.8761 1.4221 -3.97569e-016 -7.95139e-016 3.18055e-015 1.1472 -3.4929 2.6336 -1.98785e-016 -3.97569e-016 3.18055e-015 0.8229 -2.3 1.6571 -1.98785e-016 0 3.18055e-015 -9.412 3.9771 -0.7758 3.42482 1.32465 -0.0626183 -0.7531 -40.938 0 0.000117508 0.717283 0.000978199 0 -40.1986 0 -3.4257 -2.04197 -0.0604716 8.88178e-016 -4.4182 9.239 6.47761e-025 0 -0 9.4119 3.9773 -0.7758 -3.42483 1.34017 0.0627307 0.7532 -40.9383 -2.22045e-016 -0.000193936 0.682302 -0.0013703 -8.88179e-016 -40.1986 0 3.42574 -2.02253 0.0595886 -8.88178e-016 -4.4182 9.239 -8.45714e-024 0 -7.40531e-025 
-8.95733 43.6733 2.7036 0 0 -3.23754e-010 0 8.7983 -4.7612 0.00845208 8.55891 -0.0183778 1.77636e-015 8.0291 0.4195 0.0200594 17.1179 -0.0387097 -1.77636e-015 9.9351 -2.2114 0.0200594 17.1179 -0.0387098 1.77636e-015 22.3885 -0.4656 2.70617 3.48059 0.176066 -0.0001 12.643 3.4389 -0.0204765 -11.0986 -0.0125062 2.2603 21.606 7.4023 18.2027 -38.9377 -8.39842 13.5163 -1.1332 -5.0146 80.8093 -0.0467159 9.39881 -0.0995 -28.05 -0.2431 -3.30808 -5.37513 -0.755552 0.0679 -23.3996 -0.1402 12.9962 -1.99226 6.95534 0.7932 -9.069 2.5189 1.07034e-008 -7.4125e-008 2.89716e-006 -0.8272 -3.3923 0.5977 -1.59028e-015 6.36111e-015 1.59028e-015 -0.5649 -2.3158 0.4082 0 6.36111e-015 -0 0.9159 -9.2044 0.2193 1.07034e-008 -7.4125e-008 2.89716e-006 0.0117 -4.1944 -0.0248 -0.0129314 0.00235057 8.83905e-005 0.0071 -2.3249 -0.0142 -1.59028e-015 -6.36111e-015 3.18055e-015 0.6113 -8.7231 -2.0637 1.07034e-008 -7.4125e-008 2.89716e-006 -0.1927 -3.8059 -0.2383 -0.0159734 0.00298079 0.00085338 -0.1091 -2.1688 -0.1362 -7.95139e-016 9.54166e-015 1.59028e-015 -0.6151 -8.0947 -3.5641 1.07034e-008 -7.4125e-008 2.89716e-006 -0.4882 -2.341 -0.6462 -0.0126267 0.00313272 0.00283263 -0.3575 -1.7167 -0.4742 -6.68558e-006 1.69334e-006 2.83005e-006 -1.42 -1.8761 1.4223 1.07034e-008 -7.4125e-008 2.89716e-006 -1.1471 -3.4929 2.6334 -1.59028e-015 6.36111e-015 1.59028e-015 -0.823 -2.3 1.6571 0 6.36111e-015 -0 -2.2603 21.606 7.4023 -9.44951 -20.1048 4.1046 -13.5187 -1.1334 -5.0155 -78.5682 -5.21556 -7.52475 0.0994 -28.0499 -0.2431 5.7479 -4.80094 1.07912 -0.0679 -23.3996 -0.1402 -15.3393 10.1606 -3.75132 -0.7932 -9.0691 2.5189 -5.96354e-016 -1.59028e-015 -4.77083e-015 0.8272 -3.3923 0.5977 6.56412e-007 7.6391e-007 1.60963e-006 0.565 -2.3158 0.4082 1.21259e-014 1.59028e-015 -3.18055e-015 -0.916 -9.2044 0.2193 -5.96354e-016 -1.59028e-015 -4.77083e-015 -0.0117 -4.1944 -0.0248 0.0128409 0.00229627 -8.52087e-005 -0.0071 -2.3249 -0.0142 -5.96354e-016 1.59028e-015 -4.77083e-015 -0.6113 -8.7231 -2.0637 -5.96354e-016 -1.59028e-015 -4.77083e-015 0.1927 -3.8059 -0.2383 0.0164304 0.00304966 -0.000879799 0.1091 -2.1688 -0.1362 9.93923e-016 -1.59028e-015 3.18055e-015 0.6151 -8.0947 -3.564 -5.96354e-016 -1.59028e-015 -4.77083e-015 0.4882 -2.341 -0.6462 0.0144299 0.0036393 -0.00323049 0.3574 -1.7166 -0.4742 -4.35097e-007 -4.26686e-007 -1.00675e-006 1.4199 -1.8761 1.4221 -5.96354e-016 -1.59028e-015 -4.77083e-015 1.1472 -3.4929 2.6336 6.56412e-007 7.6391e-007 1.60963e-006 0.8229 -2.3 1.6571 1.21259e-014 1.59028e-015 -3.18055e-015 -9.412 3.9771 -0.7758 1.31895 -17.9037 -2.52905 -0.7531 -40.938 0 0.805765 60.5649 -0.1285 0 -40.1986 -8.88179e-016 -6.07342 13.4302 -1.5609 0 -4.4182 9.239 1.1894e-007 -6.02819e-009 1.76884e-007 9.4119 3.9773 -0.7758 -1.34153 -17.8986 2.49919 0.7532 -40.9383 -3.55271e-015 -0.798946 60.5248 0.153109 -2.22045e-016 -40.1986 -1.77636e-015 6.06918 13.2488 1.57122 4.44089e-016 -4.4182 9.239 4.72685e-007 -9.31303e-009 -6.33817e-008 
-17.9156 21.6653 2.0077 0 0 -9.25011e-010 -3.55271e-015 8.7983 -4.7612 0.0193438 17.1182 -0.0438386 -3.55271e-015 8.0291 0.4195 0.0573139 34.2364 -0.101404 0 9.9351 -2.2114 0.0573132 34.2362 -0.101403 -3.55271e-015 22.3885 -0.4656 5.39079 6.95963 0.354243 -0.0001 12.643 3.4389 -0.0461545 -22.1973 -0.026508 2.2603 21.606 7.4023 58.8896 -76.4488 15.8157 13.5163 -1.1332 -5.0146 74.2174 -14.5307 8.21945 -0.0995 -28.05 -0.2431 -6.65681 -10.7386 -1.58986 0.0679 -23.3996 -0.1402 26.056 -3.79795 14.4141 0.7932 -9.069 2.5189 3.18055e-015 9.54166e-015 7.95139e-016 -0.8272 -3.3923 0.5977 -0 0 6.36111e-015 -0.5649 -2.3158 0.4082 -3.53113e-031 3.18055e-015 6.36111e-015 0.9159 -9.2044 0.2193 3.18055e-015 9.54166e-015 7.95139e-016 0.0117 -4.1944 -0.0248 -0.0128208 0.00231646 8.70378e-005 0.0071 -2.3249 -0.0142 -1.59028e-015 -3.18055e-015 7.95139e-016 0.6113 -8.7231 -2.0637 3.18055e-015 9.54166e-015 7.95139e-016 -0.1927 -3.8059 -0.2383 -0.0160621 0.00298176 0.000857452 -0.1091 -2.1688 -0.1362 -4.77083e-015 3.18055e-015 2.38542e-015 -0.6151 -8.0947 -3.5641 3.18055e-015 9.54166e-015 7.95139e-016 -0.4882 -2.341 -0.6462 -0.0125799 0.00309223 0.00282582 -0.3575 -1.7167 -0.4742 -8.82781e-031 1.27222e-014 3.97569e-015 -1.42 -1.8761 1.4223 3.18055e-015 9.54166e-015 7.95139e-016 -1.1471 -3.4929 2.6334 -0 0 6.36111e-015 -0.823 -2.3 1.6571 -3.53113e-031 3.18055e-015 6.36111e-015 -2.2603 21.606 7.4023 -20.5619 -40.2174 -0.136962 -13.5187 -1.1334 -5.0155 -69.7303 -20.8317 -4.73682 0.0994 -28.0499 -0.2431 11.5441 -9.57558 2.15527 -0.0679 -23.3996 -0.1402 -30.088 20.7128 -7.86676 -0.7932 -9.0691 2.5189 -1.96604e-006 4.03223e-006 -4.23814e-006 0.8272 -3.3923 0.5977 6.55345e-007 1.4411e-006 1.41271e-006 0.565 -2.3158 0.4082 1.59028e-015 3.18055e-015 3.18055e-015 -0.916 -9.2044 0.2193 -1.96604e-006 4.03223e-006 -4.23814e-006 -0.0117 -4.1944 -0.0248 0.0129609 0.00231734 -8.08436e-005 -0.0071 -2.3249 -0.0142 6.5513e-007 1.44139e-006 1.41274e-006 -0.6113 -8.7231 -2.0637 -1.96604e-006 4.03223e-006 -4.23814e-006 0.1927 -3.8059 -0.2383 0.0163136 0.00303396 -0.000876602 0.1091 -2.1688 -0.1362 -1.59028e-015 0 -0 0.6151 -8.0947 -3.564 -1.96604e-006 4.03223e-006 -4.23814e-006 0.4882 -2.341 -0.6462 0.0146162 0.00368802 -0.00326837 0.3574 -1.7166 -0.4742 -3.53113e-031 -3.18055e-015 -6.36111e-015 1.4199 -1.8761 1.4221 -1.96604e-006 4.03223e-006 -4.23814e-006 1.1472 -3.4929 2.6336 6.55345e-007 1.4411e-006 1.41271e-006 0.8229 -2.3 1.6571 1.59028e-015 3.18055e-015 3.18055e-015 -9.412 3.9771 -0.7758 -1.75047 -35.3709 -6.66605 -0.7531 -40.938 3.55271e-015 -174.242 61.8369 173.825 -3.55271e-015 -40.1986 0 -6.90745 29.6607 -4.70774 0 -4.4182 9.239 -7.95139e-016 3.18055e-015 -3.97569e-016 9.4119 3.9773 -0.7758 1.68091 -35.3461 6.59511 0.7532 -40.9383 -1.77636e-015 174.33 61.9132 -173.871 1.77636e-015 -40.1986 -1.77636e-015 6.91581 29.2744 4.70947 1.77636e-015 -4.4182 9.239 -5.53996e-007 1.73e-008 2.39757e-007 
-24.1882 6.2523 1.60145 -0 0 3.3918e-009 0 8.7983 -4.7612 0.029907 23.1093 -0.0678714 0 8.0291 0.4195 0.108163 46.2186 -0.175058 0 9.9351 -2.2114 0.108161 46.2184 -0.175056 -3.55271e-015 22.3885 -0.4656 7.25341 9.24074 0.501164 -0.0001 12.643 3.4389 -3.50079e-006 -30.0023 -1.11604e-006 2.2603 21.606 7.4023 -166.533 -72.4595 137.641 13.5163 -1.1332 -5.0146 70.1548 -24.755 7.63675 -0.0995 -28.05 -0.2431 -9.04951 -14.4744 -2.2237 0.0679 -23.3996 -0.1402 35.2482 -4.89006 19.9066 0.7932 -9.069 2.5189 1.36735e-006 1.28114e-005 1.0102e-005 -0.8272 -3.3923 0.5977 7.95139e-016 1.19271e-014 6.21202e-016 -0.5649 -2.3158 0.4082 3.85624e-006 -1.05707e-005 -2.99712e-006 0.9159 -9.2044 0.2193 1.36735e-006 1.28114e-005 1.0102e-005 0.0117 -4.1944 -0.0248 -0.0128195 0.00230821 7.3302e-005 0.0071 -2.3249 -0.0142 6.80577e-006 2.54136e-006 -4.5088e-007 0.6113 -8.7231 -2.0637 1.36735e-006 1.28114e-005 1.0102e-005 -0.1927 -3.8059 -0.2383 -0.0160463 0.00298406 0.000856122 -0.1091 -2.1688 -0.1362 1.19271e-015 7.95139e-016 -9.29318e-015 -0.6151 -8.0947 -3.5641 1.36735e-006 1.28114e-005 1.0102e-005 -0.4882 -2.341 -0.6462 -0.0125676 0.00310808 0.00281651 -0.3575 -1.7167 -0.4742 5.10433e-006 1.69198e-006 -3.38102e-007 -1.42 -1.8761 1.4223 1.36735e-006 1.28114e-005 1.0102e-005 -1.1471 -3.4929 2.6334 7.95139e-016 1.19271e-014 6.21202e-016 -0.823 -2.3 1.6571 3.85624e-006 -1.05707e-005 -2.99712e-006 -2.2603 21.606 7.4023 -31.2343 -54.0105 -5.41152 -13.5187 -1.1334 -5.0155 -64.0538 -31.8284 -3.11004 0.0994 -28.0499 -0.2431 15.611 -12.8906 2.90391 -0.0679 -23.3996 -0.1402 -39.9188 28.3931 -11.0136 -0.7932 -9.0691 2.5189 -1.59028e-015 -3.18055e-015 3.18055e-015 0.8272 -3.3923 0.5977 -3.18055e-015 0 3.18055e-015 0.565 -2.3158 0.4082 -4.40973e-006 -1.81877e-007 5.20747e-006 -0.916 -9.2044 0.2193 -1.59028e-015 -3.18055e-015 3.18055e-015 -0.0117 -4.1944 -0.0248 0.0129493 0.00231562 -7.99488e-005 -0.0071 -2.3249 -0.0142 4.77083e-015 3.18055e-015 6.36111e-015 -0.6113 -8.7231 -2.0637 -1.59028e-015 -3.18055e-015 3.18055e-015 0.1927 -3.8059 -0.2383 0.0163169 0.00302353 -0.000872871 0.1091 -2.1688 -0.1362 -7.36142e-006 2.67729e-006 2.76544e-007 0.6151 -8.0947 -3.564 -1.59028e-015 -3.18055e-015 3.18055e-015 0.4882 -2.341 -0.6462 0.0145939 0.00367649 -0.00327199 0.3574 -1.7166 -0.4742 -1.47622e-006 4.08976e-006 -2.46541e-006 1.4199 -1.8761 1.4221 -1.59028e-015 -3.18055e-015 3.18055e-015 1.1472 -3.4929 2.6336 -3.18055e-015 0 3.18055e-015 0.8229 -2.3 1.6571 -4.40973e-006 -1.81877e-007 5.20747e-006 -9.412 3.9771 -0.7758 -5.56986 -43.6882 -14.4684 -0.7531 -40.938 -3.55271e-015 -176.305 22.1165 171.076 0 -40.1986 0 -5.1156 37.8698 -10.2708 0 -4.4182 9.239 -8.91326e-007 6.49748e-006 -3.3398e-006 9.4119 3.9773 -0.7758 5.42712 -43.5856 14.3663 0.7532 -40.9383 1.77636e-015 176.354 22.2068 -171.1 0 -40.1986 1.77636e-015 5.16346 37.2667 10.2426 0 -4.4182 9.239 -1.59028e-015 -1.85807e-009 -3.18055e-015 
